<svg width="1584" height="396" viewBox="0 0 1584 396" fill="none" xmlns="http://www.w3.org/2000/svg">
<rect width="1584" height="396" fill="#F5F5F5"/>
<g id="Awesome banner" clip-path="url(#clip0_0_1)">
<rect width="1584" height="396" fill="url(#paint0_linear_0_1)"/>
<ellipse id="Ellipse 2" cx="323" cy="64" rx="285" ry="288" fill="url(#paint1_linear_0_1)" fill-opacity="0.1"/>
<g id="copyright">
<path d="M75.95 334.52L72.30 334.52L72.30 311.16L77.20 311.16L83.70 330.04Q83.60 329.02 83.50 327.62Q83.41 326.23 83.33 324.79Q83.25 323.35 83.25 322.23L83.25 311.16L86.90 311.16L86.90 334.52L82 334.52L75.57 315.64Q75.63 316.57 75.73 317.88Q75.82 319.19 75.89 320.57Q75.95 321.94 75.95 323.10L75.95 334.52M98.80 334.84Q96.46 334.84 94.67 333.96Q92.88 333.08 91.89 331.53Q90.90 329.98 90.90 327.93Q90.90 325.78 92.13 324.18Q93.36 322.58 95.34 322.17L95.34 322.10Q93.65 321.75 92.61 320.38Q91.57 319 91.57 317.11Q91.57 315.26 92.48 313.85Q93.39 312.44 95.02 311.64Q96.66 310.84 98.80 310.84Q100.94 310.84 102.59 311.64Q104.24 312.44 105.15 313.85Q106.06 315.26 106.06 317.11Q106.06 319 105.01 320.38Q103.95 321.75 102.26 322.10L102.26 322.17Q104.24 322.58 105.47 324.18Q106.70 325.78 106.70 327.93Q106.70 329.98 105.71 331.53Q104.72 333.08 102.93 333.96Q101.14 334.84 98.80 334.84M98.80 320.73Q100.30 320.73 101.23 319.82Q102.16 318.90 102.16 317.46Q102.16 315.99 101.23 315.08Q100.30 314.17 98.80 314.17Q97.30 314.17 96.37 315.08Q95.44 315.99 95.44 317.46Q95.44 318.90 96.37 319.82Q97.30 320.73 98.80 320.73M98.80 331.45Q100.56 331.45 101.68 330.42Q102.80 329.40 102.80 327.74Q102.80 326.04 101.68 325Q100.56 323.96 98.80 323.96Q97.04 323.96 95.92 325Q94.80 326.04 94.80 327.74Q94.80 329.40 95.92 330.42Q97.04 331.45 98.80 331.45M114.35 334.52L110.70 334.52L110.70 311.16L115.60 311.16L122.10 330.04Q122 329.02 121.90 327.62Q121.81 326.23 121.73 324.79Q121.65 323.35 121.65 322.23L121.65 311.16L125.30 311.16L125.30 334.52L120.40 334.52L113.97 315.64Q114.03 316.57 114.13 317.88Q114.22 319.19 114.29 320.57Q114.35 321.94 114.35 323.10" fill="white" fill-opacity="0.9"/>
<path d="M161.48 325.24L151.24 325.24L151.24 322.68L161.48 322.68" fill="white" fill-opacity="0.9"/>
<path d="M195.02 334.84Q191.82 334.84 189.96 333.05Q188.11 331.26 188.11 328.12L188.11 317.56Q188.11 314.42 189.96 312.63Q191.82 310.84 195.02 310.84Q198.15 310.84 200.01 312.65Q201.87 314.46 201.87 317.56L198.99 317.56Q198.99 315.58 197.95 314.50Q196.91 313.43 195.02 313.43Q193.13 313.43 192.06 314.50Q190.99 315.58 190.99 317.56L190.99 328.12Q190.99 330.10 192.06 331.18Q193.13 332.25 195.02 332.25Q196.91 332.25 197.95 331.18Q198.99 330.10 198.99 328.12L201.87 328.12Q201.87 331.22 200.01 333.03Q198.15 334.84 195.02 334.84" fill="white" fill-opacity="0.9"/>
<path d="M213.96 334.84Q210.83 334.84 209 333.02Q207.18 331.19 207.18 327.80L207.18 317.88Q207.18 314.49 209 312.66Q210.83 310.84 213.96 310.84Q217.10 310.84 218.92 312.66Q220.75 314.49 220.75 317.85L220.75 327.80Q220.75 331.19 218.92 333.02Q217.10 334.84 213.96 334.84M213.96 332.25Q215.85 332.25 216.86 331.18Q217.87 330.10 217.87 328.12L217.87 317.56Q217.87 315.58 216.86 314.50Q215.85 313.43 213.96 313.43Q212.11 313.43 211.08 314.50Q210.06 315.58 210.06 317.56L210.06 328.12Q210.06 330.10 211.08 331.18Q212.11 332.25 213.96 332.25" fill="white" fill-opacity="0.9"/>
<path d="M228.65 334.52L225.87 334.52L225.87 311.16L230.12 311.16L233.10 321.27L236.20 311.16L240.46 311.16L240.46 334.52L237.67 334.52L237.67 323.48Q237.67 321.91 237.72 319.88Q237.77 317.85 237.87 315.77Q237.96 313.69 238.09 312.02L234.31 324.09L231.82 324.09L228.20 312.31Q228.46 314.68 228.55 317.50Q228.65 320.31 228.65 323.48" fill="white" fill-opacity="0.9"/>
<path d="M247.85 334.52L245.07 334.52L245.07 311.16L249.32 311.16L252.30 321.27L255.40 311.16L259.66 311.16L259.66 334.52L256.87 334.52L256.87 323.48Q256.87 321.91 256.92 319.88Q256.97 317.85 257.07 315.77Q257.16 313.69 257.29 312.02L253.51 324.09L251.02 324.09L247.40 312.31Q247.66 314.68 247.75 317.50Q247.85 320.31 247.85 323.48" fill="white" fill-opacity="0.9"/>
<path d="M271.56 334.84Q268.30 334.84 266.57 333.03Q264.84 331.22 264.84 328.12L264.84 311.16L267.72 311.16L267.72 328.12Q267.72 330.04 268.67 331.16Q269.61 332.28 271.56 332.28Q273.48 332.28 274.44 331.16Q275.40 330.04 275.40 328.12L275.40 311.16L278.28 311.16L278.28 328.12Q278.28 331.26 276.57 333.05Q274.86 334.84 271.56 334.84" fill="white" fill-opacity="0.9"/>
<path d="M286.83 334.52L284.04 334.52L284.04 311.16L287.88 311.16L295.02 331.16Q294.95 330.36 294.87 329.19Q294.79 328.02 294.75 326.73Q294.70 325.43 294.70 324.28L294.70 311.16L297.48 311.16L297.48 334.52L293.64 334.52L286.54 314.52Q286.60 315.29 286.67 316.46Q286.73 317.62 286.78 318.92Q286.83 320.22 286.83 321.40" fill="white" fill-opacity="0.9"/>
<path d="M316.20 334.52L303.72 334.52L303.72 331.90L308.49 331.90L308.49 313.78L303.72 313.78L303.72 311.16L316.20 311.16L316.20 313.78L311.43 313.78L311.43 331.90L316.20 331.90" fill="white" fill-opacity="0.9"/>
<path d="M330.60 334.52L327.72 334.52L327.72 313.78L321.32 313.78L321.32 311.16L337 311.16L337 313.78L330.60 313.78" fill="white" fill-opacity="0.9"/>
<path d="M349.80 334.52L346.92 334.52L346.92 325.78L339.88 311.16L342.95 311.16L347.50 320.76Q347.88 321.56 348.11 322.12Q348.33 322.68 348.39 322.94Q348.46 322.68 348.70 322.12Q348.94 321.56 349.32 320.76L353.87 311.16L356.84 311.16L349.80 325.78" fill="white" fill-opacity="0.9"/>
<path d="M382.83 334.52L380.04 334.52L380.04 311.16L383.88 311.16L391.02 331.16Q390.95 330.36 390.87 329.19Q390.79 328.02 390.75 326.73Q390.70 325.43 390.70 324.28L390.70 311.16L393.48 311.16L393.48 334.52L389.64 334.52L382.54 314.52Q382.60 315.29 382.67 316.46Q382.73 317.62 382.78 318.92Q382.83 320.22 382.83 321.40" fill="white" fill-opacity="0.9"/>
<path d="M405.96 334.84Q402.83 334.84 401 333.02Q399.18 331.19 399.18 327.80L399.18 317.88Q399.18 314.49 401 312.66Q402.83 310.84 405.96 310.84Q409.10 310.84 410.92 312.66Q412.75 314.49 412.75 317.85L412.75 327.80Q412.75 331.19 410.92 333.02Q409.10 334.84 405.96 334.84M405.96 332.25Q407.85 332.25 408.86 331.18Q409.87 330.10 409.87 328.12L409.87 317.56Q409.87 315.58 408.86 314.50Q407.85 313.43 405.96 313.43Q404.11 313.43 403.08 314.50Q402.06 315.58 402.06 317.56L402.06 328.12Q402.06 330.10 403.08 331.18Q404.11 332.25 405.96 332.25" fill="white" fill-opacity="0.9"/>
<path d="M424.55 334.52L418.51 334.52L418.51 311.16L424.55 311.16Q426.83 311.16 428.47 312.02Q430.12 312.89 431.03 314.46Q431.95 316.02 431.95 318.17L431.95 327.48Q431.95 329.62 431.03 331.21Q430.12 332.79 428.47 333.66Q426.83 334.52 424.55 334.52M421.39 313.72L421.39 331.96L424.55 331.96Q426.67 331.96 427.87 330.78Q429.07 329.59 429.07 327.48L429.07 318.17Q429.07 316.09 427.87 314.90Q426.67 313.72 424.55 313.72" fill="white" fill-opacity="0.9"/>
<path d="M451.40 334.52L437.96 334.52L437.96 311.16L451.40 311.16L451.40 313.78L440.81 313.78L440.81 321.02L450.28 321.02L450.28 323.58L440.81 323.58L440.81 331.90L451.40 331.90" fill="white" fill-opacity="0.9"/>
<path d="M463.69 334.84Q460.30 334.84 458.28 333.05Q456.27 331.26 456.27 328.12L459.15 328.12Q459.15 330.07 460.39 331.18Q461.64 332.28 463.69 332.28Q465.67 332.28 466.86 331.13Q468.04 329.98 468.04 328.12Q468.04 326.71 467.29 325.67Q466.54 324.63 465.13 324.25L461.58 323.26Q459.37 322.62 458.11 320.97Q456.84 319.32 456.84 317.08Q456.84 315.22 457.67 313.82Q458.51 312.41 460.01 311.62Q461.51 310.84 463.47 310.84Q465.45 310.84 466.97 311.62Q468.49 312.41 469.35 313.80Q470.22 315.19 470.22 317.02L467.34 317.02Q467.34 315.42 466.25 314.41Q465.16 313.40 463.47 313.40Q461.77 313.40 460.71 314.41Q459.66 315.42 459.66 317.02Q459.66 318.30 460.35 319.21Q461.03 320.12 462.28 320.47L465.93 321.50Q468.27 322.14 469.56 323.91Q470.86 325.69 470.86 328.12Q470.86 331.19 468.91 333.02Q466.95 334.84 463.69 334.84" fill="white" fill-opacity="0.9"/>
</g>
<path d="M77.30 197.88Q74.90 197.88 73.50 196.54Q72.11 195.19 72.11 192.84L72.11 184.92Q72.11 182.57 73.50 181.22Q74.90 179.88 77.30 179.88Q79.65 179.88 81.04 181.24Q82.43 182.59 82.43 184.92L80.27 184.92Q80.27 183.43 79.49 182.63Q78.71 181.82 77.30 181.82Q75.88 181.82 75.08 182.62Q74.27 183.41 74.27 184.90L74.27 192.84Q74.27 194.33 75.08 195.14Q75.88 195.96 77.30 195.96Q78.71 195.96 79.49 195.14Q80.27 194.33 80.27 192.84L80.27 190.44L76.72 190.44L76.72 188.47L82.43 188.47L82.43 192.84Q82.43 195.17 81.04 196.52Q79.65 197.88 77.30 197.88" fill="white" fill-opacity="0.7"/>
<path d="M91.60 197.83Q89.22 197.83 87.82 196.44Q86.42 195.05 86.42 192.55L86.42 189.53Q86.42 187.01 87.81 185.63Q89.20 184.25 91.60 184.25Q94 184.25 95.39 185.63Q96.78 187.01 96.78 189.53L96.78 192.55Q96.78 195.05 95.38 196.44Q93.98 197.83 91.60 197.83M91.60 195.91Q93.02 195.91 93.82 195.12Q94.62 194.33 94.62 192.79L94.62 189.29Q94.62 187.75 93.82 186.96Q93.02 186.17 91.60 186.17Q90.21 186.17 89.39 186.96Q88.58 187.75 88.58 189.29L88.58 192.79Q88.58 194.33 89.39 195.12Q90.21 195.91 91.60 195.91" fill="white" fill-opacity="0.7"/>
<path d="M107.08 197.64L104.92 197.64L104.92 182.09L100.12 182.09L100.12 180.12L111.88 180.12L111.88 182.09L107.08 182.09" fill="white" fill-opacity="0.7"/>
<path d="M120.40 197.83Q118.02 197.83 116.62 196.44Q115.22 195.05 115.22 192.55L115.22 189.53Q115.22 187.01 116.61 185.63QNaN 184.25 120.40 184.25Q122.80 184.25 124.19 185.63Q125.58 187.01 125.58 189.53L125.58 192.55Q125.58 195.05 124.18 196.44Q122.78 197.83 120.40 197.83M120.40 195.91Q121.82 195.91 122.62 195.12Q123.42 194.33 123.42 192.79L123.42 189.29Q123.42 187.75 122.62 186.96Q121.82 186.17 120.40 186.17Q119.01 186.17 118.19 186.96Q117.38 187.75 117.38 189.29L117.38 192.79Q117.38 194.33 118.19 195.12Q119.01 195.91 120.40 195.91" fill="white" fill-opacity="0.7"/>
<path d="M132.88 197.64L130.17 197.64L128.08 180.12L130.07 180.12L131.44 193.08Q131.54 193.87 131.58 194.72Q131.63 195.58 131.66 196.08Q131.70 195.58 131.79 194.72Q131.87 193.87 131.97 193.08L133.70 180.12L136.02 180.12L137.61 193.08Q137.70 193.87 137.80 194.72Q137.90 195.58 137.94 196.08Q137.99 195.58 138.05 194.72Q138.11 193.87 138.21 193.08L139.62 180.12L141.52 180.12L139.38 197.64L136.67 197.64L135.09 184.44Q134.99 183.62 134.94 182.84Q134.90 182.06 134.85 181.63Q134.80 182.06 134.75 182.84Q134.70 183.62 134.58 184.44" fill="white" fill-opacity="0.7"/>
<path d="M149.20 197.88Q146.87 197.88 145.44 196.48Q144.02 195.07 144.02 192.60L144.02 189.48Q144.02 187.01 145.44 185.60Q146.87 184.20 149.20 184.20Q150.76 184.20 151.92 184.82Q153.09 185.45 153.74 186.58Q154.38 187.70 154.38 189.24L154.38 191.59L146.13 191.59L146.13 192.84Q146.13 194.30 146.97 195.16Q147.81 196.01 149.20 196.01Q150.40 196.01 151.18 195.54Q151.96 195.07 152.13 194.28L154.29 194.28Q154.07 195.94 152.68 196.91Q151.29 197.88 149.20 197.88M146.13 189.24L146.13 189.91L152.27 189.91L152.27 189.24Q152.27 187.68 151.47 186.83Q150.66 185.98 149.20 185.98Q147.74 185.98 146.93 186.83Q146.13 187.68 146.13 189.24" fill="white" fill-opacity="0.7"/>
<path d="M164.37 197.88Q162.88 197.88 161.92 197.15Q160.96 196.42 160.79 195.12L160.77 195.12L160.77 197.64L158.61 197.64L158.61 180.12L160.77 180.12L160.77 183.96L160.72 186.96L160.74 186.96Q160.94 185.69 161.91 184.94Q162.88 184.20 164.37 184.20Q166.36 184.20 167.54 185.52Q168.71 186.84 168.71 189.12L168.71 192.98Q168.71 195.24 167.54 196.56Q166.36 197.88 164.37 197.88M163.65 196.01Q165.02 196.01 165.78 195.29Q166.55 194.57 166.55 192.96L166.55 189.12Q166.55 187.49 165.78 186.78Q165.02 186.07 163.65 186.07Q162.33 186.07 161.55 186.91Q160.77 187.75 160.77 189.24L160.77 192.84Q160.77 194.33 161.55 195.17Q162.33 196.01 163.65 196.01" fill="white" fill-opacity="0.7"/>
<path d="M184.12 197.64L172.84 197.64L172.84 195.67L177.52 195.67L177.52 186.41L173.32 186.41L173.32 184.44L179.68 184.44L179.68 195.67L184.12 195.67L184.12 197.64M178.36 182.06Q177.57 182.06 177.11 181.66Q176.66 181.25 176.66 180.55Q176.66 179.83 177.11 179.41Q177.57 178.99 178.36 178.99Q179.15 178.99 179.61 179.41Q180.06 179.83 180.06 180.55Q180.06 181.25 179.61 181.66Q179.15 182.06 178.36 182.06" fill="white" fill-opacity="0.7"/>
<path d="M189.57 197.64L187.41 197.64L187.41 184.44L189.57 184.44L189.57 186.96L189.59 186.96Q189.76 185.64 190.67 184.92Q191.58 184.20 193.10 184.20Q195.09 184.20 196.26 185.42Q197.44 186.65 197.44 188.76L197.44 197.64L195.28 197.64L195.28 189.14Q195.28 187.63 194.52 186.83Q193.77 186.02 192.47 186.02Q191.13 186.02 190.35 186.86Q189.57 187.70 189.57 189.24" fill="white" fill-opacity="0.7"/>
<path d="M205.65 197.88Q203.61 197.88 202.41 196.74Q201.21 195.60 201.21 193.75Q201.21 192.53 201.76 191.62Q202.31 190.70 203.30 190.19Q204.28 189.67 205.55 189.67L209.63 189.67L209.63 188.64Q209.63 186.07 206.82 186.07Q205.58 186.07 204.81 186.53Q204.04 186.98 203.99 187.80L201.83 187.80Q201.95 186.24 203.28 185.22Q204.62 184.20 206.82 184.20Q209.22 184.20 210.51 185.35Q211.79 186.50 211.79 188.57L211.79 197.64L209.66 197.64L209.66 195.24L209.61 195.24Q209.42 196.46 208.38 197.17Q207.35 197.88 205.65 197.88M206.18 196.06Q207.76 196.06 208.70 195.29Q209.63 194.52 209.63 193.20L209.63 191.35L205.79 191.35Q204.74 191.35 204.08 191.99Q203.42 192.62 203.42 193.68Q203.42 194.78 204.15 195.42Q204.88 196.06 206.18 196.06" fill="white" fill-opacity="0.7"/>
<path d="M218.85 197.64L216.69 197.64L216.69 184.44L218.85 184.44L218.85 186.96L218.90 186.96Q219.06 185.69 219.98 184.94Q220.89 184.20 222.42 184.20Q224.49 184.20 225.60 185.44Q226.72 186.67 226.72 188.95L226.72 190.08L224.56 190.08L224.56 188.95Q224.56 186.07 221.75 186.07Q220.34 186.07 219.59 186.89Q218.85 187.70 218.85 189.24" fill="white" fill-opacity="0.7"/>
<path d="M246.21 197.64LNaN 197.64L248.56 180.12L251.46 180.12LNaN 197.64L253.82 197.64L252.66 192.98L247.36 192.98L246.21 197.64M249.14 185.74L247.79 191.16L252.21 191.16L250.86 185.76Q250.48 184.22 250.26 183.19Q250.05 182.16 NaN 181.85Q249.95 182.16 249.74 183.19Q249.52 184.22 249.14 185.74" fill="white" fill-opacity="0.7"/>
<path d="M261.57 197.64L259.41 197.64L259.41 180.12L265.05 180.12Q267.50 180.12 268.95 181.52Q270.40 182.93 270.40 185.28Q270.40 187.63 268.95 189.04Q267.50 190.44 265.05 190.44L261.57 190.44L261.57 197.64M261.57 182.06L261.57 188.50L265.05 188.50Q266.46 188.50 267.32 187.62Q268.17 186.74 268.17 185.28Q268.17 183.79 267.32 182.93Q266.46 182.06 265.05 182.06" fill="white" fill-opacity="0.7"/>
<path d="M283.48 197.64L274.12 197.64L274.12 195.67L277.70 195.67L277.70 182.09L274.12 182.09L274.12 180.12L283.48 180.12L283.48 182.09L279.90 182.09L279.90 195.67L283.48 195.67" fill="white" fill-opacity="0.7"/>
<path d="M313.72 197.64L302.44 197.64L302.44 195.67L307.12 195.67L307.12 186.41L302.92 186.41L302.92 184.44L309.28 184.44L309.28 195.67L313.72 195.67L313.72 197.64M307.96 182.06Q307.17 182.06 306.71 181.66Q306.26 181.25 306.26 180.55Q306.26 179.83 306.71 179.41Q307.17 178.99 307.96 178.99Q308.75 178.99 309.21 179.41Q309.66 179.83 309.66 180.55Q309.66 181.25 309.21 181.66Q308.75 182.06 307.96 182.06" fill="white" fill-opacity="0.7"/>
<path d="M319.17 197.64L317.01 197.64L317.01 184.44L319.17 184.44L319.17 186.96L319.19 186.96Q319.36 185.64 320.27 184.92Q321.18 184.20 322.70 184.20Q324.69 184.20 325.86 185.42Q327.04 186.65 327.04 188.76L327.04 197.64L324.88 197.64L324.88 189.14Q324.88 187.63 324.12 186.83Q323.37 186.02 322.07 186.02Q320.73 186.02 319.95 186.86Q319.17 187.70 319.17 189.24" fill="white" fill-opacity="0.7"/>
<path d="M341.56 197.64L337.72 197.64Q336.09 197.64 335.10 196.69Q334.12 195.74 334.12 194.16L334.12 186.41L330.33 186.41L330.33 184.44L334.12 184.44L334.12 180.72L336.28 180.72L336.28 184.44L341.68 184.44L341.68 186.41L336.28 186.41L336.28 194.16Q336.28 194.83 336.68 195.25Q337.07 195.67 337.72 195.67L341.56 195.67" fill="white" fill-opacity="0.7"/>
<path d="M350.80 197.88Q348.47 197.88 347.04 196.48Q345.62 195.07 345.62 192.60L345.62 189.48Q345.62 187.01 347.04 185.60Q348.47 184.20 350.80 184.20Q352.36 184.20 353.52 184.82Q354.69 185.45 355.34 186.58Q355.98 187.70 355.98 189.24L355.98 191.59L347.73 191.59L347.73 192.84Q347.73 194.30 348.57 195.16Q349.41 196.01 350.80 196.01Q352 196.01 352.78 195.54Q353.56 195.07 353.73 194.28L355.89 194.28Q355.67 195.94 354.28 196.91Q352.89 197.88 350.80 197.88M347.73 189.24L347.73 189.91L353.87 189.91L353.87 189.24Q353.87 187.68 353.07 186.83Q352.26 185.98 350.80 185.98Q349.34 185.98 348.53 186.83Q347.73 187.68 347.73 189.24" fill="white" fill-opacity="0.7"/>
<path d="M365.56 201.96L361.86 201.96L361.86 199.99L365.58 199.99Q366.71 199.99 367.36 199.36Q368.01 198.72 368.01 197.64L368.01 196.44L368.06 194.28L367.98 194.28Q367.79 195.46 366.86 196.09Q365.92 196.73 364.50 196.73Q362.46 196.73 361.29 195.43Q360.11 194.14 360.11 191.88L360.11 189.10Q360.11 186.84 361.29 185.52Q362.46 184.20 364.50 184.20Q365.92 184.20 366.86 184.87Q367.79 185.54 367.98 186.72L368.03 186.72L368.03 184.44L370.17 184.44L370.17 197.64Q370.17 199.63 368.93 200.80Q367.70 201.96 365.56 201.96M365.15 194.93Q366.50 194.93 367.26 194.09Q368.03 193.25 368.03 191.76L368.03 189.24Q368.03 187.75 367.26 186.91Q366.50 186.07 365.15 186.07Q363.78 186.07 363.03 186.86Q362.27 187.66 362.27 189L362.27 192Q362.27 193.34 363.03 194.14Q363.78 194.93 365.15 194.93" fill="white" fill-opacity="0.7"/>
<path d="M377.25 197.64L375.09 197.64L375.09 184.44L377.25 184.44L377.25 186.96L377.30 186.96Q377.46 185.69 378.38 184.94Q379.29 184.20 380.82 184.20Q382.89 184.20 384 185.44Q385.12 186.67 385.12 188.95L385.12 190.08L382.96 190.08L382.96 188.95Q382.96 186.07 380.15 186.07Q378.74 186.07 377.99 186.89Q377.25 187.70 377.25 189.24" fill="white" fill-opacity="0.7"/>
<path d="M392.85 197.88Q390.81 197.88 389.61 196.74Q388.41 195.60 388.41 193.75Q388.41 192.53 388.96 191.62Q389.51 190.70 390.50 190.19Q391.48 189.67 392.75 189.67L396.83 189.67L396.83 188.64Q396.83 186.07 394.02 186.07Q392.78 186.07 392.01 186.53Q391.24 186.98 391.19 187.80L389.03 187.80Q389.15 186.24 390.48 185.22Q391.82 184.20 394.02 184.20Q396.42 184.20 397.71 185.35Q398.99 186.50 398.99 188.57L398.99 197.64L396.86 197.64L396.86 195.24L396.81 195.24Q396.62 196.46 395.58 197.17Q394.55 197.88 392.85 197.88M393.38 196.06Q394.96 196.06 395.90 195.29Q396.83 194.52 396.83 193.20L396.83 191.35L392.99 191.35Q391.94 191.35 391.28 191.99Q390.62 192.62 390.62 193.68Q390.62 194.78 391.35 195.42Q392.08 196.06 393.38 196.06" fill="white" fill-opacity="0.7"/>
<path d="M413.56 197.64L409.72 197.64Q408.09 197.64 407.10 196.69Q406.12 195.74 406.12 194.16L406.12 186.41L402.33 186.41L402.33 184.44L406.12 184.44L406.12 180.72L408.28 180.72L408.28 184.44L413.68 184.44L413.68 186.41L408.28 186.41L408.28 194.16Q408.28 194.83 408.68 195.25Q409.07 195.67 409.72 195.67L413.56 195.67" fill="white" fill-opacity="0.7"/>
<path d="M422.80 197.88Q420.47 197.88 419.04 196.48Q417.62 195.07 417.62 192.60L417.62 189.48Q417.62 187.01 419.04 185.60Q420.47 184.20 422.80 184.20Q424.36 184.20 425.52 184.82Q426.69 185.45 427.34 186.58Q427.98 187.70 427.98 189.24L427.98 191.59L419.73 191.59L419.73 192.84Q419.73 194.30 420.57 195.16Q421.41 196.01 422.80 196.01Q424 196.01 424.78 195.54Q425.56 195.07 425.73 194.28L427.89 194.28Q427.67 195.94 426.28 196.91Q424.89 197.88 422.80 197.88M419.73 189.24L419.73 189.91L425.87 189.91L425.87 189.24Q425.87 187.68 425.07 186.83Q424.26 185.98 422.80 185.98Q421.34 185.98 420.53 186.83Q419.73 187.68 419.73 189.24" fill="white" fill-opacity="0.7"/>
<path d="M437.73 197.83L436.67 197.83Q434.46 197.83 433.25 196.84Q432.04 195.84 432.04 194.02L434.20 194.02Q434.20 194.93 434.85 195.44Q435.50 195.96 436.67 195.96L437.73 195.96Q438.93 195.96 439.59 195.43Q440.25 194.90 440.25 193.94Q440.25 192.24 438.69 192.02L435.04 191.50Q433.70 191.30 432.95 190.38Q432.21 189.46 432.21 187.94Q432.21 186.22 433.40 185.23Q434.58 184.25 436.67 184.25L437.73 184.25Q439.65 184.25 440.86 185.20Q442.07 186.14 442.17 187.68L439.98 187.68Q439.94 186.98 439.32 186.53Q438.71 186.07 437.73 186.07L436.67 186.07Q435.57 186.07 434.94 186.58Q434.32 187.08 434.32 187.94Q434.32 189.34 435.59 189.53L439 190.01Q442.36 190.49 442.36 193.94Q442.36 195.79 441.15 196.81Q439.94 197.83 437.73 197.83" fill="white" fill-opacity="0.7"/>
<path d="M463.65 197.64L461.49 197.64L461.49 184.44L463.65 184.44L463.65 186.96L463.70 186.96Q463.86 185.69 464.78 184.94Q465.69 184.20 467.22 184.20Q469.29 184.20 470.40 185.44Q471.52 186.67 471.52 188.95L471.52 190.08L469.36 190.08L469.36 188.95Q469.36 186.07 466.55 186.07Q465.14 186.07 464.39 186.89Q463.65 187.70 463.65 189.24" fill="white" fill-opacity="0.7"/>
<path d="M480.40 197.88Q478.07 197.88 476.64 196.48Q475.22 195.07 475.22 192.60L475.22 189.48Q475.22 187.01 476.64 185.60Q478.07 184.20 480.40 184.20Q481.96 184.20 483.12 184.82Q484.29 185.45 484.94 186.58Q485.58 187.70 485.58 189.24L485.58 191.59L477.33 191.59L477.33 192.84Q477.33 194.30 478.17 195.16Q479.01 196.01 480.40 196.01Q481.60 196.01 482.38 195.54Q483.16 195.07 483.33 194.28L485.49 194.28Q485.27 195.94 483.88 196.91Q482.49 197.88 480.40 197.88M477.33 189.24L477.33 189.91L483.47 189.91L483.47 189.24Q483.47 187.68 482.67 186.83Q481.86 185.98 480.40 185.98Q478.94 185.98 478.13 186.83Q477.33 187.68 477.33 189.24" fill="white" fill-opacity="0.7"/>
<path d="M495.16 201.96L491.46 201.96L491.46 199.99L495.18 199.99Q496.31 199.99 496.96 199.36Q497.61 198.72 497.61 197.64L497.61 196.44L497.66 194.28L497.58 194.28Q497.39 195.46 496.46 196.09Q495.52 196.73 494.10 196.73Q492.06 196.73 490.89 195.43Q489.71 194.14 489.71 191.88L489.71 189.10Q489.71 186.84 490.89 185.52Q492.06 184.20 494.10 184.20Q495.52 184.20 496.46 184.87Q497.39 185.54 497.58 186.72L497.63 186.72L497.63 184.44L499.77 184.44L499.77 197.64Q499.77 199.63 498.53 200.80Q497.30 201.96 495.16 201.96M494.75 194.93Q496.10 194.93 496.86 194.09Q497.63 193.25 497.63 191.76L497.63 189.24Q497.63 187.75 496.86 186.91Q496.10 186.07 494.75 186.07Q493.38 186.07 492.63 186.86Q491.87 187.66 491.87 189L491.87 192Q491.87 193.34 492.63 194.14Q493.38 194.93 494.75 194.93" fill="white" fill-opacity="0.7"/>
<path d="M515.32 197.64L504.04 197.64L504.04 195.67L508.72 195.67L508.72 186.41L504.52 186.41L504.52 184.44L510.88 184.44L510.88 195.67L515.32 195.67L515.32 197.64M509.56 182.06Q508.77 182.06 508.31 181.66Q507.86 181.25 507.86 180.55Q507.86 179.83 508.31 179.41Q508.77 178.99 509.56 178.99Q510.35 178.99 510.81 179.41Q511.26 179.83 511.26 180.55Q511.26 181.25 510.81 181.66Q510.35 182.06 509.56 182.06" fill="white" fill-opacity="0.7"/>
<path d="M524.13 197.83L523.07 197.83Q520.86 197.83 519.65 196.84Q518.44 195.84 518.44 194.02L520.60 194.02Q520.60 194.93 521.25 195.44Q521.90 195.96 523.07 195.96L524.13 195.96Q525.33 195.96 525.99 195.43Q526.65 194.90 526.65 193.94Q526.65 192.24 525.09 192.02L521.44 191.50Q520.10 191.30 519.35 190.38Q518.61 189.46 518.61 187.94Q518.61 186.22 519.80 185.23Q520.98 184.25 523.07 184.25L524.13 184.25Q526.05 184.25 527.26 185.20Q528.47 186.14 528.57 187.68L526.38 187.68Q526.34 186.98 525.72 186.53Q525.11 186.07 524.13 186.07L523.07 186.07Q521.97 186.07 521.34 186.58Q520.72 187.08 520.72 187.94Q520.72 189.34 521.99 189.53L525.40 190.01Q528.76 190.49 528.76 193.94Q528.76 195.79 527.55 196.81Q526.34 197.83 524.13 197.83" fill="white" fill-opacity="0.7"/>
<path d="M543.16 197.64L539.32 197.64Q537.69 197.64 536.70 196.69Q535.72 195.74 535.72 194.16L535.72 186.41L531.93 186.41L531.93 184.44L535.72 184.44L535.72 180.72L537.88 180.72L537.88 184.44L543.28 184.44L543.28 186.41L537.88 186.41L537.88 194.16Q537.88 194.83 538.28 195.25Q538.67 195.67 539.32 195.67L543.16 195.67" fill="white" fill-opacity="0.7"/>
<path d="M550.05 197.64L547.89 197.64L547.89 184.44L550.05 184.44L550.05 186.96L550.10 186.96Q550.26 185.69 551.18 184.94Q552.09 184.20 553.62 184.20Q555.69 184.20 556.80 185.44Q557.92 186.67 557.92 188.95L557.92 190.08L555.76 190.08L555.76 188.95Q555.76 186.07 552.95 186.07Q551.54 186.07 550.79 186.89Q550.05 187.70 550.05 189.24" fill="white" fill-opacity="0.7"/>
<path d="M565.65 197.88Q563.61 197.88 562.41 196.74Q561.21 195.60 561.21 193.75Q561.21 192.53 561.76 191.62Q562.31 190.70 563.30 190.19Q564.28 189.67 565.55 189.67L569.63 189.67L569.63 188.64Q569.63 186.07 566.82 186.07Q565.58 186.07 564.81 186.53Q564.04 186.98 563.99 187.80L561.83 187.80Q561.95 186.24 563.28 185.22Q564.62 184.20 566.82 184.20Q569.22 184.20 570.51 185.35Q571.79 186.50 571.79 188.57L571.79 197.64L569.66 197.64L569.66 195.24L569.61 195.24Q569.42 196.46 568.38 197.17Q567.35 197.88 565.65 197.88M566.18 196.06Q567.76 196.06 568.70 195.29Q569.63 194.52 569.63 193.20L569.63 191.35L565.79 191.35Q564.74 191.35 564.08 191.99Q563.42 192.62 563.42 193.68Q563.42 194.78 564.15 195.42Q564.88 196.06 566.18 196.06" fill="white" fill-opacity="0.7"/>
<path d="M578.37 197.64L576.21 197.64L576.21 184.44L578.37 184.44L578.37 186.96L578.39 186.96Q578.56 185.64 579.47 184.92Q580.38 184.20 581.90 184.20Q583.89 184.20 585.06 185.42Q586.24 186.65 586.24 188.76L586.24 197.64L584.08 197.64L584.08 189.14Q584.08 187.63 583.32 186.83Q582.57 186.02 581.27 186.02Q579.93 186.02 579.15 186.86Q578.37 187.70 578.37 189.24" fill="white" fill-opacity="0.7"/>
<path d="M600.76 197.64L596.92 197.64Q595.29 197.64 594.30 196.69Q593.32 195.74 593.32 194.16L593.32 186.41L589.53 186.41L589.53 184.44L593.32 184.44L593.32 180.72L595.48 180.72L595.48 184.44L600.88 184.44L600.88 186.41L595.48 186.41L595.48 194.16Q595.48 194.83 595.88 195.25Q596.27 195.67 596.92 195.67L600.76 195.67" fill="white" fill-opacity="0.7"/>
<path d="M623.25 197.88Q621.21 197.88 620.01 196.74Q618.81 195.60 618.81 193.75Q618.81 192.53 619.36 191.62Q619.91 190.70 620.90 190.19Q621.88 189.67 623.15 189.67L627.23 189.67L627.23 188.64Q627.23 186.07 624.42 186.07Q623.18 186.07 622.41 186.53Q621.64 186.98 621.59 187.80L619.43 187.80Q619.55 186.24 620.88 185.22Q622.22 184.20 624.42 184.20Q626.82 184.20 628.11 185.35Q629.39 186.50 629.39 188.57L629.39 197.64L627.26 197.64L627.26 195.24L627.21 195.24Q627.02 196.46 625.98 197.17Q624.95 197.88 623.25 197.88M623.78 196.06Q625.36 196.06 626.30 195.29Q627.23 194.52 627.23 193.20L627.23 191.35L623.39 191.35Q622.34 191.35 621.68 191.99Q621.02 192.62 621.02 193.68Q621.02 194.78 621.75 195.42Q622.48 196.06 623.78 196.06" fill="white" fill-opacity="0.7"/>
<path d="M635.97 197.64L633.81 197.64L633.81 184.44L635.97 184.44L635.97 186.96L635.99 186.96Q636.16 185.64 637.07 184.92Q637.98 184.20 639.50 184.20Q641.49 184.20 642.66 185.42Q643.84 186.65 643.84 188.76L643.84 197.64L641.68 197.64L641.68 189.14Q641.68 187.63 640.92 186.83Q640.17 186.02 638.87 186.02Q637.53 186.02 636.75 186.86Q635.97 187.70 635.97 189.24" fill="white" fill-opacity="0.7"/>
<path d="M652.43 197.88Q650.46 197.88 649.28 196.56Q648.09 195.24 648.09 192.98L648.09 189.12Q648.09 186.84 649.26 185.52Q650.44 184.20 652.43 184.20Q653.92 184.20 654.89 184.94Q655.86 185.69 656.06 186.96L656.08 186.96L656.03 183.96L656.03 180.12L658.19 180.12L658.19 197.64L656.03 197.64L656.03 195.12L656.01 195.12Q655.84 196.42 654.88 197.15Q653.92 197.88 652.43 197.88M653.15 196.01Q654.50 196.01 655.26 195.17Q656.03 194.33 656.03 192.84L656.03 189.24Q656.03 187.75 655.26 186.91Q654.50 186.07 653.15 186.07Q651.78 186.07 651.02 186.78Q650.25 187.49 650.25 189.12L650.25 192.96Q650.25 194.57 651.02 195.29Q651.78 196.01 653.15 196.01" fill="white" fill-opacity="0.7"/>
<path d="M680.85 197.88Q678.81 197.88 677.61 196.74Q676.41 195.60 676.41 193.75Q676.41 192.53 676.96 191.62Q677.51 190.70 678.50 190.19Q679.48 189.67 680.75 189.67L684.83 189.67L684.83 188.64Q684.83 186.07 682.02 186.07Q680.78 186.07 680.01 186.53Q679.24 186.98 679.19 187.80L677.03 187.80Q677.15 186.24 678.48 185.22Q679.82 184.20 682.02 184.20Q684.42 184.20 685.71 185.35Q686.99 186.50 686.99 188.57L686.99 197.64L684.86 197.64L684.86 195.24L684.81 195.24Q684.62 196.46 683.58 197.17Q682.55 197.88 680.85 197.88M681.38 196.06Q682.96 196.06 683.90 195.29Q684.83 194.52 684.83 193.20L684.83 191.35L680.99 191.35Q679.94 191.35 679.28 191.99Q678.62 192.62 678.62 193.68Q678.62 194.78 679.35 195.42Q680.08 196.06 681.38 196.06" fill="white" fill-opacity="0.7"/>
<path d="M701.56 197.64L697.72 197.64Q696.09 197.64 695.10 196.69Q694.12 195.74 694.12 194.16L694.12 186.41L690.33 186.41L690.33 184.44L694.12 184.44L694.12 180.72L696.28 180.72L696.28 184.44L701.68 184.44L701.68 186.41L696.28 186.41L696.28 194.16Q696.28 194.83 696.68 195.25Q697.07 195.67 697.72 195.67L701.56 195.67" fill="white" fill-opacity="0.7"/>
<path d="M715.96 197.64L712.12 197.64Q710.49 197.64 709.50 196.69Q708.52 195.74 708.52 194.16L708.52 186.41L704.73 186.41L704.73 184.44L708.52 184.44L708.52 180.72L710.68 180.72L710.68 184.44L716.08 184.44L716.08 186.41L710.68 186.41L710.68 194.16Q710.68 194.83 711.08 195.25Q711.47 195.67 712.12 195.67L715.96 195.67" fill="white" fill-opacity="0.7"/>
<path d="M725.20 197.88Q722.87 197.88 721.44 196.48Q720.02 195.07 720.02 192.60L720.02 189.48Q720.02 187.01 721.44 185.60Q722.87 184.20 725.20 184.20Q726.76 184.20 727.92 184.82Q729.09 185.45 729.74 186.58Q730.38 187.70 730.38 189.24L730.38 191.59L722.13 191.59L722.13 192.84Q722.13 194.30 722.97 195.16Q723.81 196.01 725.20 196.01Q726.40 196.01 727.18 195.54Q727.96 195.07 728.13 194.28L730.29 194.28Q730.07 195.94 728.68 196.91Q727.29 197.88 725.20 197.88M722.13 189.24L722.13 189.91L728.27 189.91L728.27 189.24Q728.27 187.68 727.47 186.83Q726.66 185.98 725.20 185.98Q723.74 185.98 722.93 186.83Q722.13 187.68 722.13 189.24" fill="white" fill-opacity="0.7"/>
<path d="M736.77 197.64L734.61 197.64L734.61 184.44L736.77 184.44L736.77 186.96L736.79 186.96Q736.96 185.64 737.87 184.92Q738.78 184.20 740.30 184.20Q742.29 184.20 743.46 185.42Q744.64 186.65 744.64 188.76L744.64 197.64L742.48 197.64L742.48 189.14Q742.48 187.63 741.72 186.83Q740.97 186.02 739.67 186.02Q738.33 186.02 737.55 186.86Q736.77 187.70 736.77 189.24" fill="white" fill-opacity="0.7"/>
<path d="M753.23 197.88Q751.26 197.88 750.08 196.56Q748.89 195.24 748.89 192.98L748.89 189.12Q748.89 186.84 750.06 185.52Q751.24 184.20 753.23 184.20Q754.72 184.20 755.69 184.94Q756.66 185.69 756.86 186.96L756.88 186.96L756.83 183.96L756.83 180.12L758.99 180.12L758.99 197.64L756.83 197.64L756.83 195.12L756.81 195.12Q756.64 196.42 755.68 197.15Q754.72 197.88 753.23 197.88M753.95 196.01Q755.30 196.01 756.06 195.17Q756.83 194.33 756.83 192.84L756.83 189.24Q756.83 187.75 756.06 186.91Q755.30 186.07 753.95 186.07Q752.58 186.07 751.82 186.78Q751.05 187.49 751.05 189.12L751.05 192.96Q751.05 194.57 751.82 195.29Q752.58 196.01 753.95 196.01" fill="white" fill-opacity="0.7"/>
<path d="M768.40 197.88Q766.07 197.88 764.64 196.48Q763.22 195.07 763.22 192.60L763.22 189.48Q763.22 187.01 764.64 185.60Q766.07 184.20 768.40 184.20Q769.96 184.20 771.12 184.82Q772.29 185.45 772.94 186.58Q773.58 187.70 773.58 189.24L773.58 191.59L765.33 191.59L765.33 192.84Q765.33 194.30 766.17 195.16Q767.01 196.01 768.40 196.01Q769.60 196.01 770.38 195.54Q771.16 195.07 771.33 194.28L773.49 194.28Q773.27 195.94 771.88 196.91Q770.49 197.88 768.40 197.88M765.33 189.24L765.33 189.91L771.47 189.91L771.47 189.24Q771.47 187.68 770.67 186.83Q769.86 185.98 768.40 185.98Q766.94 185.98 766.13 186.83Q765.33 187.68 765.33 189.24" fill="white" fill-opacity="0.7"/>
<path d="M782.80 197.88Q780.47 197.88 779.04 196.48Q777.62 195.07 777.62 192.60L777.62 189.48Q777.62 187.01 779.04 185.60Q780.47 184.20 782.80 184.20Q784.36 184.20 785.52 184.82Q786.69 185.45 787.34 186.58Q787.98 187.70 787.98 189.24L787.98 191.59L779.73 191.59L779.73 192.84Q779.73 194.30 780.57 195.16Q781.41 196.01 782.80 196.01Q784 196.01 784.78 195.54Q785.56 195.07 785.73 194.28L787.89 194.28Q787.67 195.94 786.28 196.91Q784.89 197.88 782.80 197.88M779.73 189.24L779.73 189.91L785.87 189.91L785.87 189.24Q785.87 187.68 785.07 186.83Q784.26 185.98 782.80 185.98Q781.34 185.98 780.53 186.83Q779.73 187.68 779.73 189.24" fill="white" fill-opacity="0.7"/>
<path d="M810.83 197.88Q808.86 197.88 807.68 196.56Q806.49 195.24 806.49 192.98L806.49 189.12Q806.49 186.84 807.66 185.52Q808.84 184.20 810.83 184.20Q812.32 184.20 813.29 184.94Q814.26 185.69 814.46 186.96L814.48 186.96L814.43 183.96L814.43 180.12L816.59 180.12L816.59 197.64L814.43 197.64L814.43 195.12L814.41 195.12Q814.24 196.42 813.28 197.15Q812.32 197.88 810.83 197.88M811.55 196.01Q812.90 196.01 813.66 195.17Q814.43 194.33 814.43 192.84L814.43 189.24Q814.43 187.75 813.66 186.91Q812.90 186.07 811.55 186.07Q810.18 186.07 809.42 186.78Q808.65 187.49 808.65 189.12L808.65 192.96Q808.65 194.57 809.42 195.29Q810.18 196.01 811.55 196.01" fill="white" fill-opacity="0.7"/>
<path d="M824.85 197.88Q822.81 197.88 821.61 196.74Q820.41 195.60 820.41 193.75Q820.41 192.53 820.96 191.62Q821.51 190.70 822.50 190.19Q823.48 189.67 824.75 189.67L828.83 189.67L828.83 188.64Q828.83 186.07 826.02 186.07Q824.78 186.07 824.01 186.53Q823.24 186.98 823.19 187.80L821.03 187.80Q821.15 186.24 822.48 185.22Q823.82 184.20 826.02 184.20Q828.42 184.20 829.71 185.35Q830.99 186.50 830.99 188.57L830.99 197.64L828.86 197.64L828.86 195.24L828.81 195.24Q828.62 196.46 827.58 197.17Q826.55 197.88 824.85 197.88M825.38 196.06Q826.96 196.06 827.90 195.29Q828.83 194.52 828.83 193.20L828.83 191.35L824.99 191.35Q823.94 191.35 823.28 191.99Q822.62 192.62 822.62 193.68Q822.62 194.78 823.35 195.42Q824.08 196.06 825.38 196.06" fill="white" fill-opacity="0.7"/>
<path d="M845.56 197.64L841.72 197.64Q840.09 197.64 839.10 196.69Q838.12 195.74 838.12 194.16L838.12 186.41L834.33 186.41L834.33 184.44L838.12 184.44L838.12 180.72L840.28 180.72L840.28 184.44L845.68 184.44L845.68 186.41L840.28 186.41L840.28 194.16Q840.28 194.83 840.68 195.25Q841.07 195.67 841.72 195.67L845.56 195.67" fill="white" fill-opacity="0.7"/>
<path d="M853.65 197.88Q851.61 197.88 850.41 196.74Q849.21 195.60 849.21 193.75Q849.21 192.53 849.76 191.62Q850.31 190.70 851.30 190.19Q852.28 189.67 853.55 189.67L857.63 189.67L857.63 188.64Q857.63 186.07 854.82 186.07Q853.58 186.07 852.81 186.53Q852.04 186.98 851.99 187.80L849.83 187.80Q849.95 186.24 851.28 185.22Q852.62 184.20 854.82 184.20Q857.22 184.20 858.51 185.35Q859.79 186.50 859.79 188.57L859.79 197.64L857.66 197.64L857.66 195.24L857.61 195.24Q857.42 196.46 856.38 197.17Q855.35 197.88 853.65 197.88M854.18 196.06Q855.76 196.06 856.70 195.29Q857.63 194.52 857.63 193.20L857.63 191.35L853.79 191.35Q852.74 191.35 852.08 191.99Q851.42 192.62 851.42 193.68Q851.42 194.78 852.15 195.42Q852.88 196.06 854.18 196.06" fill="white" fill-opacity="0.7"/>
<path d="M889.72 197.64L878.44 197.64L878.44 195.67L883.12 195.67L883.12 186.41L878.92 186.41L878.92 184.44L885.28 184.44L885.28 195.67L889.72 195.67L889.72 197.64M883.96 182.06Q883.17 182.06 882.71 181.66Q882.26 181.25 882.26 180.55Q882.26 179.83 882.71 179.41Q883.17 178.99 883.96 178.99Q884.75 178.99 885.21 179.41Q885.66 179.83 885.66 180.55Q885.66 181.25 885.21 181.66Q884.75 182.06 883.96 182.06" fill="white" fill-opacity="0.7"/>
<path d="M895.17 197.64L893.01 197.64L893.01 184.44L895.17 184.44L895.17 186.96L895.19 186.96Q895.36 185.64 896.27 184.92Q897.18 184.20 898.70 184.20Q900.69 184.20 901.86 185.42Q903.04 186.65 903.04 188.76L903.04 197.64L900.88 197.64L900.88 189.14Q900.88 187.63 900.12 186.83Q899.37 186.02 898.07 186.02Q896.73 186.02 895.95 186.86Q895.17 187.70 895.17 189.24" fill="white" fill-opacity="0.7"/>
<path d="M917.56 197.64L913.72 197.64Q912.09 197.64 911.10 196.69Q910.12 195.74 910.12 194.16L910.12 186.41L906.33 186.41L906.33 184.44L910.12 184.44L910.12 180.72L912.28 180.72L912.28 184.44L917.68 184.44L917.68 186.41L912.28 186.41L912.28 194.16Q912.28 194.83 912.68 195.25Q913.07 195.67 913.72 195.67L917.56 195.67" fill="white" fill-opacity="0.7"/>
<path d="M926.80 197.83Q924.42 197.83 923.02 196.44Q921.62 195.05 921.62 192.55L921.62 189.53Q921.62 187.01 923.01 185.63Q924.40 184.25 926.80 184.25Q929.20 184.25 930.59 185.63Q931.98 187.01 931.98 189.53L931.98 192.55Q931.98 195.05 930.58 196.44Q929.18 197.83 926.80 197.83M926.80 195.91Q928.22 195.91 929.02 195.12Q929.82 194.33 929.82 192.79L929.82 189.29Q929.82 187.75 929.02 186.96Q928.22 186.17 926.80 186.17Q925.41 186.17 924.59 186.96Q923.78 187.75 923.78 189.29L923.78 192.79Q923.78 194.33 924.59 195.12Q925.41 195.91 926.80 195.91" fill="white" fill-opacity="0.7"/>
<path d="M961.72 197.64L950.44 197.64L950.44 195.67L955.12 195.67L955.12 186.41L950.92 186.41L950.92 184.44L957.28 184.44L957.28 195.67L961.72 195.67L961.72 197.64M955.96 182.06Q955.17 182.06 954.71 181.66Q954.26 181.25 954.26 180.55Q954.26 179.83 954.71 179.41Q955.17 178.99 955.96 178.99Q956.75 178.99 957.21 179.41Q957.66 179.83 957.66 180.55Q957.66 181.25 957.21 181.66Q956.75 182.06 955.96 182.06" fill="white" fill-opacity="0.7"/>
<path d="M967.17 197.64L965.01 197.64L965.01 184.44L967.17 184.44L967.17 186.96L967.19 186.96Q967.36 185.64 968.27 184.92Q969.18 184.20 970.70 184.20Q972.69 184.20 973.86 185.42Q975.04 186.65 975.04 188.76L975.04 197.64L972.88 197.64L972.88 189.14Q972.88 187.63 972.12 186.83Q971.37 186.02 970.07 186.02Q968.73 186.02 967.95 186.86Q967.17 187.70 967.17 189.24" fill="white" fill-opacity="0.7"/>
<path d="M984.52 197.64L982.36 197.64L982.36 188.21L978.52 188.21L978.52 186.24L982.36 186.24L982.36 183.48Q982.36 181.92 983.34 181.02Q984.33 180.12 986.06 180.12L989.92 180.12L989.92 182.09L986.06 182.09Q984.52 182.09 984.52 183.48L984.52 186.24L989.92 186.24L989.92 188.21L984.52 188.21" fill="white" fill-opacity="0.7"/>
<path d="M996.45 197.64L994.29 197.64L994.29 184.44L996.45 184.44L996.45 186.96L996.50 186.96Q996.66 185.69 997.58 184.94Q998.49 184.20 1000.02 184.20Q1002.09 184.20 1003.20 185.44Q1004.32 186.67 1004.32 188.95L1004.32 190.08L1002.16 190.08L1002.16 188.95Q1002.16 186.07 999.35 186.07Q997.94 186.07 997.19 186.89Q996.45 187.70 996.45 189.24" fill="white" fill-opacity="0.7"/>
<path d="M1012.05 197.88Q1010.01 197.88 1008.81 196.74Q1007.61 195.60 1007.61 193.75Q1007.61 192.53 1008.16 191.62Q1008.71 190.70 1009.70 190.19Q1010.68 189.67 1011.95 189.67L1016.03 189.67L1016.03 188.64Q1016.03 186.07 1013.22 186.07Q1011.98 186.07 1011.21 186.53Q1010.44 186.98 1010.39 187.80L1008.23 187.80Q1008.35 186.24 1009.68 185.22Q1011.02 184.20 1013.22 184.20Q1015.62 184.20 1016.91 185.35Q1018.19 186.50 1018.19 188.57L1018.19 197.64L1016.06 197.64L1016.06 195.24L1016.01 195.24Q1015.82 196.46 1014.78 197.17Q1013.75 197.88 1012.05 197.88M1012.58 196.06Q1014.16 196.06 1015.10 195.29Q1016.03 194.52 1016.03 193.20L1016.03 191.35L1012.19 191.35Q1011.14 191.35 1010.48 191.99Q1009.82 192.62 1009.82 193.68Q1009.82 194.78 1010.55 195.42Q1011.28 196.06 1012.58 196.06" fill="white" fill-opacity="0.7"/>
<path d="M1028.13 197.83L1027.07 197.83Q1024.86 197.83 1023.65 196.84Q1022.44 195.84 1022.44 194.02L1024.60 194.02Q1024.60 194.93 1025.25 195.44Q1025.90 195.96 1027.07 195.96L1028.13 195.96Q1029.33 195.96 1029.99 195.43Q1030.65 194.90 1030.65 193.94Q1030.65 192.24 1029.09 192.02L1025.44 191.50Q1024.10 191.30 1023.35 190.38Q1022.61 189.46 1022.61 187.94Q1022.61 186.22 1023.80 185.23Q1024.98 184.25 1027.07 184.25L1028.13 184.25Q1030.05 184.25 1031.26 185.20Q1032.47 186.14 1032.57 187.68L1030.38 187.68Q1030.34 186.98 1029.72 186.53Q1029.11 186.07 1028.13 186.07L1027.07 186.07Q1025.97 186.07 1025.34 186.58Q1024.72 187.08 1024.72 187.94Q1024.72 189.34 1025.99 189.53L1029.40 190.01Q1032.76 190.49 1032.76 193.94Q1032.76 195.79 1031.55 196.81Q1030.34 197.83 1028.13 197.83" fill="white" fill-opacity="0.7"/>
<path d="M1047.16 197.64L1043.32 197.64Q1041.69 197.64 1040.70 196.69Q1039.72 195.74 1039.72 194.16L1039.72 186.41L1035.93 186.41L1035.93 184.44L1039.72 184.44L1039.72 180.72L1041.88 180.72L1041.88 184.44L1047.28 184.44L1047.28 186.41L1041.88 186.41L1041.88 194.16Q1041.88 194.83 1042.28 195.25Q1042.67 195.67 1043.32 195.67L1047.16 195.67" fill="white" fill-opacity="0.7"/>
<path d="M1054.05 197.64L1051.89 197.64L1051.89 184.44L1054.05 184.44L1054.05 186.96L1054.10 186.96Q1054.26 185.69 1055.18 184.94Q1056.09 184.20 1057.62 184.20Q1059.69 184.20 1060.80 185.44Q1061.92 186.67 1061.92 188.95L1061.92 190.08L1059.76 190.08L1059.76 188.95Q1059.76 186.07 1056.95 186.07Q1055.54 186.07 1054.79 186.89Q1054.05 187.70 1054.05 189.24" fill="white" fill-opacity="0.7"/>
<path d="M1070.78 197.88Q1068.50 197.88 1067.13 196.52Q1065.76 195.17 1065.76 192.84L1065.76 184.44L1067.92 184.44L1067.92 192.84Q1067.92 194.28 1068.69 195.13Q1069.46 195.98 1070.78 195.98Q1072.12 195.98 1072.90 195.13Q1073.68 194.28 1073.68 192.84L1073.68 184.44L1075.84 184.44L1075.84 192.84Q1075.84 195.17 1074.45 196.52Q1073.06 197.88 1070.78 197.88" fill="white" fill-opacity="0.7"/>
<path d="M1085.39 197.88Q1082.99 197.88 1081.55 196.54Q1080.11 195.19 1080.11 192.84L1080.11 189.24Q1080.11 186.89 1081.55 185.54Q1082.99 184.20 1085.39 184.20Q1087.67 184.20 1089.08 185.42Q1090.48 186.65 1090.55 188.76L1088.39 188.76Q1088.32 187.49 1087.53 186.80Q1086.74 186.12 1085.39 186.12Q1083.98 186.12 1083.12 186.92Q1082.27 187.73 1082.27 189.22L1082.27 192.84Q1082.27 194.33 1083.12 195.14Q1083.98 195.96 1085.39 195.96Q1086.74 195.96 1087.53 195.26Q1088.32 194.57 1088.39 193.32L1090.55 193.32Q1090.48 195.43 1089.08 196.66Q1087.67 197.88 1085.39 197.88" fill="white" fill-opacity="0.7"/>
<path d="M1104.76 197.64L1100.92 197.64Q1099.29 197.64 1098.30 196.69Q1097.32 195.74 1097.32 194.16L1097.32 186.41L1093.53 186.41L1093.53 184.44L1097.32 184.44L1097.32 180.72L1099.48 180.72L1099.48 184.44L1104.88 184.44L1104.88 186.41L1099.48 186.41L1099.48 194.16Q1099.48 194.83 1099.88 195.25Q1100.27 195.67 1100.92 195.67L1104.76 195.67" fill="white" fill-opacity="0.7"/>
<path d="M1113.98 197.88Q1111.70 197.88 1110.33 196.52Q1108.96 195.17 1108.96 192.84L1108.96 184.44L1111.12 184.44L1111.12 192.84Q1111.12 194.28 1111.89 195.13Q1112.66 195.98 1113.98 195.98Q1115.32 195.98 1116.10 195.13Q1116.88 194.28 1116.88 192.84L1116.88 184.44L1119.04 184.44L1119.04 192.84Q1119.04 195.17 1117.65 196.52Q1116.26 197.88 1113.98 197.88" fill="white" fill-opacity="0.7"/>
<path d="M1126.05 197.64L1123.89 197.64L1123.89 184.44L1126.05 184.44L1126.05 186.96L1126.10 186.96Q1126.26 185.69 1127.18 184.94Q1128.09 184.20 1129.62 184.20Q1131.69 184.20 1132.80 185.44Q1133.92 186.67 1133.92 188.95L1133.92 190.08L1131.76 190.08L1131.76 188.95Q1131.76 186.07 1128.95 186.07Q1127.54 186.07 1126.79 186.89Q1126.05 187.70 1126.05 189.24" fill="white" fill-opacity="0.7"/>
<path d="M1142.80 197.88Q1140.47 197.88 1139.04 196.48Q1137.62 195.07 1137.62 192.60L1137.62 189.48Q1137.62 187.01 1139.04 185.60Q1140.47 184.20 1142.80 184.20Q1144.36 184.20 1145.52 184.82Q1146.69 185.45 1147.34 186.58Q1147.98 187.70 1147.98 189.24L1147.98 191.59L1139.73 191.59L1139.73 192.84Q1139.73 194.30 1140.57 195.16Q1141.41 196.01 1142.80 196.01Q1144 196.01 1144.78 195.54Q1145.56 195.07 1145.73 194.28L1147.89 194.28Q1147.67 195.94 1146.28 196.91Q1144.89 197.88 1142.80 197.88M1139.73 189.24L1139.73 189.91L1145.87 189.91L1145.87 189.24Q1145.87 187.68 1145.07 186.83Q1144.26 185.98 1142.80 185.98Q1141.34 185.98 1140.53 186.83Q1139.73 187.68 1139.73 189.24" fill="white" fill-opacity="0.7"/>
<path d="M77.20 229.83Q74.82 229.83 73.42 228.44Q72.02 227.05 72.02 224.55L72.02 221.53Q72.02 219.01 73.41 217.63Q74.80 216.25 77.20 216.25Q79.60 216.25 80.99 217.63Q82.38 219.01 82.38 221.53L82.38 224.55Q82.38 227.05 80.98 228.44Q79.58 229.83 77.20 229.83M77.20 227.91Q78.62 227.91 79.42 227.12Q80.22 226.33 80.22 224.79L80.22 221.29Q80.22 219.75 79.42 218.96Q78.62 218.17 77.20 218.17Q75.81 218.17 74.99 218.96Q74.18 219.75 74.18 221.29L74.18 224.79Q74.18 226.33 74.99 227.12Q75.81 227.91 77.20 227.91" fill="white" fill-opacity="0.7"/>
<path d="M89.25 229.64L87.09 229.64L87.09 216.44L89.25 216.44L89.25 218.96L89.30 218.96Q89.46 217.69 90.38 216.94Q91.29 216.20 92.82 216.20Q94.89 216.20 96 217.44Q97.12 218.67 97.12 220.95L97.12 222.08L94.96 222.08L94.96 220.95Q94.96 218.07 92.15 218.07Q90.74 218.07 89.99 218.89Q89.25 219.70 89.25 221.24" fill="white" fill-opacity="0.7"/>
<path d="M125.56 229.64L121.72 229.64Q120.09 229.64 119.10 228.69Q118.12 227.74 118.12 226.16L118.12 218.41L114.33 218.41L114.33 216.44L118.12 216.44L118.12 212.72L120.28 212.72L120.28 216.44L125.68 216.44L125.68 218.41L120.28 218.41L120.28 226.16Q120.28 226.83 120.68 227.25Q121.07 227.67 121.72 227.67L125.56 227.67" fill="white" fill-opacity="0.7"/>
<path d="M131.97 229.64L129.81 229.64L129.81 212.12L131.97 212.12L131.97 218.96L131.99 218.96Q132.16 217.64 133.07 216.92Q133.98 216.20 135.50 216.20Q137.49 216.20 138.66 217.42Q139.84 218.65 139.84 220.76L139.84 229.64L137.68 229.64L137.68 221.12Q137.68 219.63 136.92 218.83Q136.17 218.02 134.87 218.02Q133.53 218.02 132.75 218.86Q131.97 219.70 131.97 221.24" fill="white" fill-opacity="0.7"/>
<path d="M155.32 229.64L144.04 229.64L144.04 227.67L148.72 227.67L148.72 218.41L144.52 218.41L144.52 216.44L150.88 216.44L150.88 227.67L155.32 227.67L155.32 229.64M149.56 214.06Q148.77 214.06 148.31 213.66Q147.86 213.25 147.86 212.55Q147.86 211.83 148.31 211.41Q148.77 210.99 149.56 210.99Q150.35 210.99 150.81 211.41Q151.26 211.83 151.26 212.55Q151.26 213.25 150.81 213.66Q150.35 214.06 149.56 214.06" fill="white" fill-opacity="0.7"/>
<path d="M161.25 229.64L159.09 229.64L159.09 216.44L161.25 216.44L161.25 218.96L161.30 218.96Q161.46 217.69 162.38 216.94Q163.29 216.20 164.82 216.20Q166.89 216.20 168 217.44Q169.12 218.67 169.12 220.95L169.12 222.08L166.96 222.08L166.96 220.95Q166.96 218.07 164.15 218.07Q162.74 218.07 161.99 218.89Q161.25 219.70 161.25 221.24" fill="white" fill-opacity="0.7"/>
<path d="M177.23 229.88Q175.26 229.88 174.08 228.56Q172.89 227.24 172.89 224.98L172.89 221.12Q172.89 218.84 174.06 217.52Q175.24 216.20 177.23 216.20Q178.72 216.20 179.69 216.94Q180.66 217.69 180.86 218.96L180.88 218.96L180.83 215.96L180.83 212.12L182.99 212.12L182.99 229.64L180.83 229.64L180.83 227.12L180.81 227.12Q180.64 228.42 179.68 229.15Q178.72 229.88 177.23 229.88M177.95 228.01Q179.30 228.01 180.06 227.17Q180.83 226.33 180.83 224.84L180.83 221.24Q180.83 219.75 180.06 218.91Q179.30 218.07 177.95 218.07Q176.58 218.07 175.82 218.78Q175.05 219.49 175.05 221.12L175.05 224.96Q175.05 226.57 175.82 227.29Q176.58 228.01 177.95 228.01" fill="white" fill-opacity="0.7"/>
<path d="M196.24 222.68L188.56 222.68L188.56 220.76L196.24 220.76" fill="white" fill-opacity="0.7"/>
<path d="M203.97 233.96L201.81 233.96L201.81 216.44L203.97 216.44L203.97 218.96L203.99 218.96Q204.16 217.66 205.12 216.93Q206.08 216.20 207.57 216.20Q209.56 216.20 210.74 217.51Q211.91 218.82 211.91 221.10L211.91 224.96Q211.91 227.24 210.74 228.56Q209.56 229.88 207.57 229.88Q206.08 229.88 205.12 229.14Q204.16 228.39 203.99 227.12L203.92 227.12L203.97 230.12L203.97 233.96M206.85 228.01Q208.22 228.01 208.98 227.29Q209.75 226.57 209.75 224.96L209.75 221.12Q209.75 219.49 208.98 218.78Q208.22 218.07 206.85 218.07Q205.53 218.07 204.75 218.91Q203.97 219.75 203.97 221.24L203.97 224.84Q203.97 226.33 204.75 227.17Q205.53 228.01 206.85 228.01" fill="white" fill-opacity="0.7"/>
<path d="M220.05 229.88Q218.01 229.88 216.81 228.74Q215.61 227.60 215.61 225.75Q215.61 224.53 216.16 223.62Q216.71 222.70 217.70 222.19Q218.68 221.67 219.95 221.67L224.03 221.67L224.03 220.64Q224.03 218.07 221.22 218.07Q219.98 218.07 219.21 218.53Q218.44 218.98 218.39 219.80L216.23 219.80Q216.35 218.24 217.68 217.22Q219.02 216.20 221.22 216.20Q223.62 216.20 224.91 217.35Q226.19 218.50 226.19 220.57L226.19 229.64L224.06 229.64L224.06 227.24L224.01 227.24Q223.82 228.46 222.78 229.17Q221.75 229.88 220.05 229.88M220.58 228.06Q222.16 228.06 223.10 227.29Q224.03 226.52 224.03 225.20L224.03 223.35L220.19 223.35Q219.14 223.35 218.48 223.99Q217.82 224.62 217.82 225.68Q217.82 226.78 218.55 227.42Q219.28 228.06 220.58 228.06" fill="white" fill-opacity="0.7"/>
<path d="M233.25 229.64L231.09 229.64L231.09 216.44L233.25 216.44L233.25 218.96L233.30 218.96Q233.46 217.69 234.38 216.94Q235.29 216.20 236.82 216.20Q238.89 216.20 240 217.44Q241.12 218.67 241.12 220.95L241.12 222.08L238.96 222.08L238.96 220.95Q238.96 218.07 236.15 218.07Q234.74 218.07 233.99 218.89Q233.25 219.70 233.25 221.24" fill="white" fill-opacity="0.7"/>
<path d="M255.16 229.64L251.32 229.64Q249.69 229.64 248.70 228.69Q247.72 227.74 247.72 226.16L247.72 218.41L243.93 218.41L243.93 216.44L247.72 216.44L247.72 212.72L249.88 212.72L249.88 216.44L255.28 216.44L255.28 218.41L249.88 218.41L249.88 226.16Q249.88 226.83 250.28 227.25Q250.67 227.67 251.32 227.67L255.16 227.67" fill="white" fill-opacity="0.7"/>
<path d="M263.73 233.96L261.47 233.96L263.42 228.82L258.50 216.44L260.82 216.44L263.94 224.60Q264.14 225.08 264.30 225.61Q264.47 226.14 264.54 226.52Q264.62 226.14 264.78 225.61Q264.95 225.08 265.12 224.60L268.02 216.44L270.30 216.44" fill="white" fill-opacity="0.7"/>
<path d="M292.05 229.88Q290.01 229.88 288.81 228.74Q287.61 227.60 287.61 225.75Q287.61 224.53 288.16 223.62Q288.71 222.70 289.70 222.19Q290.68 221.67 291.95 221.67L296.03 221.67L296.03 220.64Q296.03 218.07 293.22 218.07Q291.98 218.07 291.21 218.53Q290.44 218.98 290.39 219.80L288.23 219.80Q288.35 218.24 289.68 217.22Q291.02 216.20 293.22 216.20Q295.62 216.20 296.91 217.35Q298.19 218.50 298.19 220.57L298.19 229.64L296.06 229.64L296.06 227.24L296.01 227.24Q295.82 228.46 294.78 229.17Q293.75 229.88 292.05 229.88M292.58 228.06Q294.16 228.06 295.10 227.29Q296.03 226.52 296.03 225.20L296.03 223.35L292.19 223.35Q291.14 223.35 290.48 223.99Q289.82 224.62 289.82 225.68Q289.82 226.78 290.55 227.42Q291.28 228.06 292.58 228.06" fill="white" fill-opacity="0.7"/>
<path d="M304.77 233.96L302.61 233.96L302.61 216.44L304.77 216.44L304.77 218.96L304.79 218.96Q304.96 217.66 305.92 216.93Q306.88 216.20 308.37 216.20Q310.36 216.20 311.54 217.51Q312.71 218.82 312.71 221.10L312.71 224.96Q312.71 227.24 311.54 228.56Q310.36 229.88 308.37 229.88Q306.88 229.88 305.92 229.14Q304.96 228.39 304.79 227.12L304.72 227.12L304.77 230.12L304.77 233.96M307.65 228.01Q309.02 228.01 309.78 227.29Q310.55 226.57 310.55 224.96L310.55 221.12Q310.55 219.49 309.78 218.78Q309.02 218.07 307.65 218.07Q306.33 218.07 305.55 218.91Q304.77 219.75 304.77 221.24L304.77 224.84Q304.77 226.33 305.55 227.17Q306.33 228.01 307.65 228.01" fill="white" fill-opacity="0.7"/>
<path d="M319.17 233.96L317.01 233.96L317.01 216.44L319.17 216.44L319.17 218.96L319.19 218.96Q319.36 217.66 320.32 216.93Q321.28 216.20 322.77 216.20Q324.76 216.20 325.94 217.51Q327.11 218.82 327.11 221.10L327.11 224.96Q327.11 227.24 325.94 228.56Q324.76 229.88 322.77 229.88Q321.28 229.88 320.32 229.14Q319.36 228.39 319.19 227.12L319.12 227.12L319.17 230.12L319.17 233.96M322.05 228.01Q323.42 228.01 324.18 227.29Q324.95 226.57 324.95 224.96L324.95 221.12Q324.95 219.49 324.18 218.78Q323.42 218.07 322.05 218.07Q320.73 218.07 319.95 218.91Q319.17 219.75 319.17 221.24L319.17 224.84Q319.17 226.33 319.95 227.17Q320.73 228.01 322.05 228.01" fill="white" fill-opacity="0.7"/>
<path d="M336.93 229.83L335.87 229.83Q333.66 229.83 332.45 228.84Q331.24 227.84 331.24 226.02L333.40 226.02Q333.40 226.93 334.05 227.44Q334.70 227.96 335.87 227.96L336.93 227.96Q338.13 227.96 338.79 227.43Q339.45 226.90 339.45 225.94Q339.45 224.24 337.89 224.02L334.24 223.50Q332.90 223.30 332.15 222.38Q331.41 221.46 331.41 219.94Q331.41 218.22 332.60 217.23Q333.78 216.25 335.87 216.25L336.93 216.25Q338.85 216.25 340.06 217.20Q341.27 218.14 341.37 219.68L339.18 219.68Q339.14 218.98 338.52 218.53Q337.91 218.07 336.93 218.07L335.87 218.07Q334.77 218.07 334.14 218.58Q333.52 219.08 333.52 219.94Q333.52 221.34 334.79 221.53L338.20 222.01Q341.56 222.49 341.56 225.94Q341.56 227.79 340.35 228.81Q339.14 229.83 336.93 229.83" fill="white" fill-opacity="0.7"/>
<path d="M350.80 229.88Q349.91 229.88 349.37 229.35Q348.83 228.82 348.83 227.98Q348.83 227.10 349.37 226.54Q349.91 225.99 350.80 225.99Q351.69 225.99 352.23 226.54Q352.77 227.10 352.77 227.98Q352.77 228.82 352.23 229.35Q351.69 229.88 350.80 229.88" fill="white" fill-opacity="0.7"/>
<path d="M91.18 137.02Q81.49 137.02 75.78 131.60Q70.06 126.17 70.06 116.67L70.06 85.28Q70.06 75.87 75.78 70.44Q81.49 65.02 91.18 65.02Q100.78 65.02 106.50 70.49Q112.21 75.96 112.21 85.28L102.70 85.28Q102.70 79.61 99.63 76.54Q96.56 73.47 91.18 73.47Q85.71 73.47 82.64 76.54Q79.57 79.61 79.57 85.28L79.57 116.67Q79.57 122.43 82.64 125.50Q85.71 128.57 91.18 128.57Q96.56 128.57 99.63 125.50Q102.70 122.43 102.70 116.67L102.70 107.55L89.07 107.55L89.07 99.10L112.21 99.10L112.21 116.67Q112.21 126.08 106.50 131.55Q100.78 137.02 91.18 137.02M169.71 136.06L128.91 136.06L128.91 65.98L169.71 65.98L169.71 74.52L138.32 74.52L138.32 95.36L166.35 95.36L166.35 103.61L138.32 103.61L138.32 127.52L169.71 127.52L169.71 136.06M210.80 136.06L201.30 136.06L201.30 74.62L182.29 74.62L182.29 65.98L229.71 65.98L229.71 74.62L210.80 74.62L210.80 136.06M263.98 137.02Q254.29 137.02 248.58 131.60Q242.86 126.17 242.86 116.67L242.86 85.28Q242.86 75.87 248.58 70.44Q254.29 65.02 263.98 65.02Q273.58 65.02 279.30 70.49Q285.01 75.96 285.01 85.28L275.50 85.28Q275.50 79.61 272.43 76.54Q269.36 73.47 263.98 73.47Q258.51 73.47 255.44 76.54Q252.37 79.61 252.37 85.28L252.37 116.67Q252.37 122.43 255.44 125.50Q258.51 128.57 263.98 128.57Q269.36 128.57 272.43 125.50Q275.50 122.43 275.50 116.67L275.50 107.55L261.87 107.55L261.87 99.10L285.01 99.10L285.01 116.67Q285.01 126.08 279.30 131.55Q273.58 137.02 263.98 137.02M321.20 137.02Q311.60 137.02 306.03 131.45Q300.46 125.88 300.46 115.71L300.46 86.24Q300.46 76.16 306.03 70.59Q311.60 65.02 321.20 65.02Q330.80 65.02 336.37 70.54Q341.94 76.06 341.94 86.24L341.94 115.71Q341.94 125.88 336.37 131.45Q330.80 137.02 321.20 137.02M321.20 128.57Q326.58 128.57 329.50 125.50Q332.43 122.43 332.43 116.67L332.43 85.28Q332.43 79.61 329.55 76.54Q326.67 73.47 321.20 73.47Q315.73 73.47 312.85 76.54Q309.97 79.61 309.97 85.28L309.97 116.67Q309.97 122.43 312.90 125.50Q315.82 128.57 321.20 128.57M436.78 137.02Q427.09 137.02 421.38 131.60Q415.66 126.17 415.66 116.67L415.66 85.28Q415.66 75.87 421.38 70.44Q427.09 65.02 436.78 65.02Q446.38 65.02 452.10 70.49Q457.81 75.96 457.81 85.28L448.30 85.28Q448.30 79.61 445.23 76.54Q442.16 73.47 436.78 73.47Q431.31 73.47 428.24 76.54Q425.17 79.61 425.17 85.28L425.17 116.67Q425.17 122.43 428.24 125.50Q431.31 128.57 436.78 128.57Q442.16 128.57 445.23 125.50Q448.30 122.43 448.30 116.67L448.30 107.55L434.67 107.55L434.67 99.10L457.81 99.10L457.81 116.67Q457.81 126.08 452.10 131.55Q446.38 137.02 436.78 137.02MNaN 137.02Q484.40 137.02 478.83 131.45Q473.26 125.88 473.26 115.71L473.26 86.24Q473.26 76.16 478.83 70.59Q484.40 65.02 NaN 65.02Q503.60 65.02 509.17 70.54Q514.74 76.06 514.74 86.24L514.74 115.71Q514.74 125.88 509.17 131.45Q503.60 137.02 NaN 137.02MNaN 128.57Q499.38 128.57 502.30 125.50Q505.23 122.43 505.23 116.67L505.23 85.28Q505.23 79.61 502.35 76.54Q499.47 73.47 NaN 73.47Q488.53 73.47 485.65 76.54Q482.77 79.61 482.77 85.28L482.77 116.67Q482.77 122.43 485.70 125.50Q488.62 128.57 NaN 128.57M556.40 136.06L546.90 136.06L546.90 74.62L527.89 74.62L527.89 65.98L575.31 65.98L575.31 74.62L556.40 74.62L556.40 136.06M609.20 137.02Q599.60 137.02 594.03 131.45Q588.46 125.88 588.46 115.71L588.46 86.24Q588.46 76.16 594.03 70.59Q599.60 65.02 609.20 65.02Q618.80 65.02 624.37 70.54Q629.94 76.06 629.94 86.24L629.94 115.71Q629.94 125.88 624.37 131.45Q618.80 137.02 609.20 137.02M609.20 128.57Q614.58 128.57 617.50 125.50Q620.43 122.43 620.43 116.67L620.43 85.28Q620.43 79.61 617.55 76.54Q614.67 73.47 609.20 73.47Q603.73 73.47 600.85 76.54Q597.97 79.61 597.97 85.28L597.97 116.67Q597.97 122.43 600.90 125.50Q603.82 128.57 609.20 128.57M659.31 136.06L647.89 136.06L639.82 65.98L648.27 65.98L653.46 117.05Q653.74 120.12 653.98 123.63Q654.22 127.13 654.32 129.34Q654.51 127.13 654.80 123.63Q655.09 120.12 655.57 117.05L662.29 65.98L671.79 65.98L678.03 117.05Q678.32 120.12 678.70 123.63Q679.09 127.13 679.38 129.34Q679.47 127.13 679.76 123.63Q680.05 120.12 680.34 117.05L685.62 65.98L693.87 65.98L685.52 136.06LNaN 136.06L667.95 84.22Q667.57 81.05 667.33 77.74Q667.09 74.43 666.99 72.41Q666.70 74.43 666.51 77.74Q666.32 81.05 665.94 84.22L659.31 136.06M745.71 136.06L704.91 136.06L704.91 65.98L745.71 65.98L745.71 74.52L714.32 74.52L714.32 95.36L742.35 95.36L742.35 103.61L714.32 103.61L714.32 127.52L745.71 127.52L745.71 136.06M783.34 136.06L761.74 136.06L761.74 65.98LNaN 65.98Q791.70 65.98 797.31 70.83Q802.93 75.68 802.93 84.12Q802.93 89.60 799.52 93.87Q796.11 98.14 790.74 99.10L790.74 99.39Q794.77 99.87 797.89 102.27Q801.01 104.67 802.78 108.36Q804.56 112.06 804.56 116.48Q804.56 125.50 798.85 130.78Q793.14 136.06 783.34 136.06M771.06 74.33L771.06 95.55L781.90 95.55Q787.28 95.55 790.35 92.72Q793.42 89.88 793.42 84.99Q793.42 80 790.35 77.16Q787.28 74.33 NaN 74.33L771.06 74.33M771.06 103.61L771.06 127.71L782.48 127.71Q788.34 127.71 791.70 124.59Q795.06 121.47 795.06 116.09Q795.06 110.52 791.70 107.07Q788.34 103.61 782.48 103.61L771.06 103.61M858.70 136.06L820.50 136.06L820.50 127.42L834.80 127.42L834.80 74.62L820.50 74.62L820.50 65.98L858.70 65.98L858.70 74.62L844.40 74.62L844.40 127.42L858.70 127.42L858.70 136.06M885.58 136.06L876.66 136.06L876.66 65.98L888.94 65.98L909.87 125.12Q909.58 122.62 909.34 118.92Q909.10 115.23 908.96 111.24Q908.82 107.26 908.82 103.71L908.82 65.98L917.84 65.98L917.84 136.06L905.46 136.06L884.72 76.92Q884.91 79.42 885.10 83.02Q885.30 86.62 885.44 90.56Q885.58 94.49 885.58 97.95L885.58 136.06M940.11 136.06L930.42 136.06L948.56 65.98L961.14 65.98L979.18 136.06L969.49 136.06L965.07 117.82L944.53 117.82L940.11 136.06M951.54 88.92L946.45 109.95L963.15 109.95L958.16 89.02Q956.72 83.26 955.86 79.23Q954.99 75.20 954.80 73.76Q954.61 75.20 953.74 79.23Q952.88 83.26 951.54 88.92M1001.55 136.06L992.14 136.06L992.14 65.98L1013.84 65.98Q1020.27 65.98 1025.07 68.52Q1029.87 71.07 1032.56 75.63Q1035.25 80.19 1035.25 86.33Q1035.25 93.44 1031.65 98.52Q1028.05 103.61 1022.10 105.72L1036.21 136.06L1025.74 136.06L1012.40 106.78L1001.55 106.78L1001.55 136.06M1001.55 74.43L1001.55 98.33L1013.84 98.33Q1019.22 98.33 1022.34 95.07Q1025.46 91.80 1025.46 86.43Q1025.46 80.96 1022.29 77.69Q1019.12 74.43 1013.84 74.43" fill="url(#paint2_linear_0_1)"/>
<g id="Group 1">
<rect id="Rectangle 1" x="26" y="168" width="12" height="184" rx="5" fill="url(#paint3_linear_0_1)" fill-opacity="0.9"/>
</g>
<g id="Group 1_2">
<rect id="Rectangle 2" x="26" y="38" width="12" height="119" rx="5" fill="url(#paint4_linear_0_1)" fill-opacity="0.9"/>
</g>
<ellipse id="Ellipse 1" cx="148.5" cy="573" rx="215.5" ry="214" fill="url(#paint5_linear_0_1)" fill-opacity="0.4"/>
<rect id="Rectangle 3" x="1229" y="48" width="300" height="300" rx="25" fill="#FFFBFB" fill-opacity="0.9"/>
<g id="placeholder-logo"><g transform="translate(1229,48) translate(0.0,60.0) scale(1.2000)"><g fill="#666666">
  <path d="m88.05,27.65c-3.15,4 -3.2,51.2 -0.05,54.35c2.75,2.75 71.7,3.15 74.45,0.45c2.85,-2.9 2.3,-53.85 -0.65,-55.9c-1.95,-1.35 -7.15,-1.55 -36.95,-1.55l-34.7,0l-2.1,2.65zm69.45,3.35c0.65,0 1,8.6 1,23.75l0,23.75l-33,0l-33,0l-0.25,-23c-0.15,-12.6 -0.1,-23.45 0.15,-24.1c0.35,-0.85 8.9,-1.05 32.25,-0.75c17.55,0.2 32.3,0.35 32.85,0.35z"/>
  <path d="m99.15,37.3c-6.85,7.35 4.25,17.35 11.4,10.25c1.35,-1.35 2.45,-3.65 2.45,-5.05c0,-6.45 -9.35,-9.95 -13.85,-5.2z"/>
  <path d="m135,42.5c-0.7,0.85 -5.25,5.15 -10.1,9.6l-8.85,8.1l-3.2,-3.2l-3.15,-3.15l-6.35,6.3c-5.55,5.5 -6.35,6.75 -6.35,10.05l0,3.8l28.5,0l28.5,0l0,-8.6l0,-8.55l-8.15,-7.7c-9.35,-8.85 -9.15,-8.7 -10.85,-6.65zm7.25,15.2c0.95,0.9 1.75,2.9 1.75,4.45c6.35,-5.05 4.75,-7.15 4.9,-11.55c0.95,0 0,0 0,0l-6.65,7.1z"/>
  <path d="m53.65,110.75c0.1,4.8 0.45,8.65 0.75,8.5c0.35,-0.15 1.3,-0.25 2.1,-0.25c1.1,0 1.5,-1.2 1.5,-4.75l0,-4.75l3.25,5c4.9,7.5 6.2,6.75 6.55,-3.75c0.25,-8.15 0.15,-8.75 -1.7,-8.75c-1.65,0 -2.05,0.8 -2.3,4.75l-0.3,4.75l-2.8,-4.75c-4.85,-8.25 -7.25,-6.9 -7.05,4z"/>
  <path d="m91,108.9c0,9.65 0.3,10.1 6.1,10.1c5.8,0 7.15,-2.65 1.65,-3.2l-3.25,-0.3l-0.3,-6.75c-0.25,-5.95 -0.55,-6.75 -2.25,-6.75c-1.75,0 -1.95,0.7 -1.95,6.9z"/>
  <path d="m151,102.45c0,0.25 1,2.15 2.25,4.2c1.2,2.1 2.45,5.8 2.75,8.25c0.65,5.9 4,6.95 4,1.25c0.05,-2.1 1.25,-5.85 2.95,-8.9l2.9,-5.25l-2.5,0c-1.8,0 -2.8,0.85 -3.75,3.1l-1.3,3.05l-1.25,-3.05c-1.1,-2.6 -6.05,-4.8 -6.05,-2.65z"/>
  <path d="m191,107.45c0,9.05 3.4,8.85 4.25,-0.2c0.45,-5 0.35,-5.25 -1.9,-5.25c-2.2,0 -2.35,0.4 -2.35,5.45z"/>
  <path d="m180.8,104.75c-1.3,5.35 0.65,13.6 3.45,14.35c2.3,0.6 2.75,0.4 2.75,-1.2c0,-1.05 -0.45,-1.9 -1,-1.9c-0.55,0 -1,-1.6 -1,-3.5c0,-1.95 0.45,-3.5 1,-3.5c0.55,0 1,-0.7 1,-1.5c0,-0.85 -0.45,-1.5 -1,-1.5c-0.55,0 -1,-0.7 -1,-1.5c0,-2.1 -3.65,-1.9 -4.2,0.25z"/>
  <path d="m71.55,106.55c-2.2,2.25 -2.05,9.7 0.3,11.8c4.5,4.1 10.15,0.75 10.15,-6.1c0,-4.85 -2,-7.25 -6,-7.25c-1.55,0 -3.55,0.7 -4.45,1.55zm6.25,5.8c0.25,3.05 0,3.65 -1.6,3.65c-2.3,0 -3.25,-2.65 -2.05,-5.85c1.25,-3.35 3.3,-2.1 3.65,2.2z"/>
  <path d="m105.75,106.1c-2.5,1.45 -2.45,9.95 0.1,12.25c4.3,3.9 10.15,0.35 10.15,-6.2c0,-6 -5.15,-9.05 -10.25,-6.05zm6.05,6.25c0.25,3.05 0,3.65 -1.6,3.65c-2.3,0 -3.25,-2.65 -2.05,-5.85c1.25,-3.35 3.3,-2.1 3.65,2.2z"/>
  <path d="m119.2,106.2c-3.8,3.8 -0.4,12.55 4.4,11.35c1.9,-0.45 2.45,-0.3 2.15,0.65c-0.25,0.7 -1.55,1.2 -2.85,1.1c-4.05,-0.3 -5.35,0.45 -3.85,2.25c0.85,1.05 2.6,1.45 5.35,1.25l4.1,-0.3l0.3,-8.75l0.3,-8.75l-4.35,0c-2.4,0 -4.9,0.55 -5.55,1.2zm6.6,4.45c0.4,2.85 -2.15,4.85 -3.75,2.95c-0.9,-1.1 -0.9,-2 -0.05,-3.6c1.35,-2.5 3.4,-2.15 3.8,0.65z"/>
  <path d="m133.55,106.55c-2.2,2.25 -2.05,9.7 0.3,11.8c4.5,4.1 10.15,0.75 10.15,-6.1c0,-4.85 -2,-7.25 -6,-7.25c-1.55,0 -3.55,0.7 -4.45,1.55zm6.25,5.8c0.25,3.05 0,3.65 -1.6,3.65c-2.3,0 -3.25,-2.65 -2.05,-5.85c1.25,-3.35 3.3,-2.1 3.65,2.2z"/>
  <path d="m167.65,106.85c-3.9,4.3 -0.75,13.15 4.7,13.15c2.4,0 5.65,-2.75 5.65,-4.85c0,-1.4 -2.65,-1.55 -3.5,-0.15c-0.95,1.55 -4.5,1.15 -4.5,-0.5c0,-1.1 1.1,-1.5 4,-1.5c3.15,0 4,-0.35 4,-1.8c0,-5.3 -6.85,-8.25 -10.35,-4.35z"/>
  <path d="m191,117.5c0,2.15 0.4,2.6 2.25,2.3c1.5,-0.2 2.25,-1 2.25,-2.3c0,-1.3 -0.75,-2.1 -2.25,-2.3c-1.85,-0.3 -2.25,0.15 -2.25,2.3z"/>
 </g></g></g>
</g>
<defs>
<linearGradient id="paint0_linear_0_1" x1="0" y1="198" x2="1584" y2="198" gradientUnits="userSpaceOnUse">
<stop stop-color="#3D052C"/>
<stop offset="1"/>
</linearGradient>
<linearGradient id="paint1_linear_0_1" x1="323" y1="-224" x2="323" y2="352" gradientUnits="userSpaceOnUse">
<stop stop-color="#28F6F2" stop-opacity="0.4"/>
<stop offset="1" stop-color="#17908E" stop-opacity="0.7"/>
</linearGradient>
<linearGradient id="paint2_linear_0_1" x1="148.5" y1="38" x2="148.5" y2="140" gradientUnits="userSpaceOnUse">
<stop stop-color="white"/>
<stop offset="1" stop-color="#999999"/>
</linearGradient>
<linearGradient id="paint3_linear_0_1" x1="38" y1="260" x2="26" y2="260" gradientUnits="userSpaceOnUse">
<stop stop-color="#D9D9D9"/>
<stop offset="1" stop-color="#737373"/>
</linearGradient>
<linearGradient id="paint4_linear_0_1" x1="38" y1="97.5" x2="26" y2="97.5" gradientUnits="userSpaceOnUse">
<stop stop-color="#D9D9D9"/>
<stop offset="1" stop-color="#737373"/>
</linearGradient>
<linearGradient id="paint5_linear_0_1" x1="27.5" y1="434.5" x2="148.5" y2="787" gradientUnits="userSpaceOnUse">
<stop stop-color="#2E21BC"/>
<stop offset="1" stop-color="#150F56"/>
</linearGradient>
<clipPath id="clip0_0_1">
<rect width="1584" height="396" fill="white"/>
</clipPath>
</defs>
</svg>
